#!OML:ASF F:\VICON\USERDATA\INSTALL\rory3\rory3.ASF
:FULLY-SPECIFIED
:DEGREES
86
root 1.0767498133886435 17.838545932703326 46.10109729869265 -3.431345996247498 -0.055475550753463665 0.2218957514422315
lfemur -0.7059492514383052 -4.244869512595813 -24.464710611732237
ltibia 21.97392975496723
lfoot -8.122763646499848 -1.7110335987524086
ltoes -7.398056924853398
rfemur -21.88019989006039 1.2079504272936714 20.64709034646767
rtibia 59.59110343096733
rfoot -6.801915542887316 -3.0937837681125533
rtoes 6.001009859831962
lowerback 1.0 -0.22714224909181469 -0.8469383794848047
upperback 0.38097796011642465 -0.30020127984693556 0.9329779522536699
thorax -4.893755865831415 -0.06565740888047344 1.72382037840876
lowerneck -16.99312631650469 -3.0266356200730633 -1.3575783747079162
upperneck 21.02168124106964 -3.991110817157981 1.3272120982269462
head 9.595568437349886 -1.8884846068745031 0.23692544418786135
lclavicle -1.0583391013185117e-15 -3.9889686317363935e-16
lhumerus -27.967680493526473 -2.116108402067713 83.67168301923985
lradius 27.433143148908762
lwrist 5.517625674895978
lhand -26.831711537338986 23.44429797205554
lfingers nan
lthumb -0.23040465933756354 53.391446334334425
rclavicle -1.1345468130153374e-15 -4.610586135742286e-16
rhumerus -28.238138395747107 -17.292070882556164 -80.52094637186778
rradius 28.016808034879478
rwrist 4.18903958045799
rhand -17.50764945497046 1.0
rfingers nan
rthumb 8.811560449990976 -8.299119678626605
87
root 1.1010650481144508 17.84229673168526 46.673050951606925 -3.3344876834302646 -0.7613729928739765 0.6099554424450675
lfemur 2.215406800491266 -4.130577998301696 -24.832565577271417
ltibia 21.065246042051285
lfoot -5.97286713068417 -0.9897322980037442
ltoes -9.20218926708149
rfemur -24.404122040098372 1.5636361919171735 20.497021757365847
rtibia 58.07823587467506
rfoot -7.256840540888367 -2.1447080529058224
rtoes 4.7397062292746925
lowerback 1.0 -0.42874977565971684 -1.3015963935133321
upperback 0.3701631013919493 -0.6977089051129557 0.9860564835234696
thorax -4.88971875458905 -0.2659122061011462 2.196240073396338
lowerneck -17.041023031832147 -2.9453920043328083 -1.3809409236805186
upperneck 21.118930228054552 -3.8590053642448616 1.2388037135210386
head 9.633520353090129 -1.8350719926806742 0.2413075991219345
lclavicle -1.0612403551145394e-15 -3.994927687922697e-16
lhumerus -27.295111709155034 -2.4998553544930333 83.54472688158914
lradius 27.53028861760951
lwrist 5.262626012009267
lhand -26.82353345066359 23.507392580023133
lfingers nan
lthumb -0.20386478231764976 53.4929464879
rclavicle -1.1397713374829601e-15 -4.639978706265044e-16
rhumerus -28.589222471535592 -17.919316254234275 -80.66416307621135
rradius 27.890293529929682
rwrist 4.008342183686116
rhand -17.511358971631633 1.0
rfingers nan
rthumb 8.812124161439728 -8.273997032284365
88
root 1.122370480429902 17.846882049828686 46.68880720538086 -3.2329378665735593 -1.315640499920925 0.6110460968289462
lfemur 4.905623461981383 -4.010388550957816 -24.80839380774559
ltibia 20.179967141376856
lfoot -4.717588387365386 -2.8823581784123573
ltoes -8.624283434824122
rfemur -26.019054920330646 1.9091052285900143 20.76253198000877
rtibia 55.006025984026536
rfoot -7.581548022385654 -1.645127789087324
rtoes 3.691037139488202
lowerback 1.0 -0.6157518744449538 -1.430234613198651
upperback 0.35662130912988427 -0.9865624988248818 1.1732531311938383
thorax -4.85708494260205 -0.4275750341691438 2.5332018729308343
lowerneck -17.047724147295938 -2.8658222214773184 -1.452335239365326
upperneck 21.280163900718694 -3.7252017350236866 1.135054062707502
head 9.688862014506533 -1.7812302228074042 0.243332175150168
lclavicle -1.0641518561634545e-15 -3.9982194036492775e-16
lhumerus -26.744571398355834 -2.821192479755929 83.43040100006478
lradius 27.5388873215521
lwrist 5.12936161219298
lhand -26.825227930935245 23.580522473323153
lfingers nan
lthumb -0.16472425116105244 53.67722410568623
rclavicle -1.1447888741794766e-15 -4.665885079089301e-16
rhumerus -28.967095595724142 -18.472024297469865 -80.7199109920481
rradius 27.844193008539783
rwrist 3.8283908127767208
rhand -17.503491264253213 1.0
rfingers nan
rthumb 8.808705548400567 -8.259772726186048
89
root 1.1400076508332067 17.851583309244226 46.59968801014555 -3.139396304891748 -1.6962648925727657 0.33973628575829196
lfemur 6.960858262476334 -3.98481773830881 -24.546652112076316
ltibia 19.90010444178877
lfoot -3.9463821783413726 -3.886937995946682
ltoes -8.20755599208266
rfemur -26.96067744987958 2.2388414596388375 21.162300845777885
rtibia 50.82191280347281
rfoot -7.932034191297307 -1.3709233986094835
rtoes 2.893838386663199
lowerback 1.0 -0.7850119990125414 -1.3491238668140522
upperback 0.3084942715753054 -1.2215527437853935 1.4243177258721338
thorax -4.85829972676425 -0.5732031171412372 2.7128461795763035
lowerneck -17.016168156998393 -2.789753613276634 -1.5385229223776258
upperneck 21.488909723502985 -3.593564147921794 1.014539732770999
head 9.756254857638643 -1.7292724879052026 0.23973824661464266
lclavicle -1.0668679554789475e-15 -4.0061175649415254e-16
lhumerus -26.3235367448192 -3.0650595964733 83.33445633807794
lradius 27.469714242189674
lwrist 5.093875353127676
lhand -26.814371611836044 23.666062771634525
lfingers nan
lthumb -0.1385812281371625 53.819746994841694
rclavicle -1.14778708508597e-15 -4.679851113650887e-16
rhumerus -29.341741242753518 -18.9163256050797 -80.66880640463779
rradius 27.8880781916639
rwrist 3.695587445327474
rhand -17.51947393495325 1.0
rfingers nan
rthumb 8.803530790426048 -8.261439650564565
